HIERARCHY
ROOT hip
{
  OFFSET 0 0 0
  CHANNELS 6 Xposition Yposition Zposition Zrotation Yrotation Xrotation
  JOINT abdomen
  {
    OFFSET 0 20.6881 -0.73152
    CHANNELS 3 Zrotation Xrotation Yrotation
    JOINT chest
    {
      OFFSET 0 11.7043 -0.48768
      CHANNELS 3 Zrotation Xrotation Yrotation
      JOINT neck
      {
        OFFSET 0 22.1894 -2.19456
        CHANNELS 3 Zrotation Xrotation Yrotation
        JOINT head
        {
          OFFSET -0.24384 7.07133 1.2192
          CHANNELS 3 Zrotation Xrotation Yrotation
          JOINT leftEye
          {
            OFFSET 4.14528 8.04674 8.04672
            CHANNELS 3 Zrotation Xrotation Yrotation
            End Site
            {
              OFFSET 1 0 0
            }
          }
          JOINT rightEye
          {
            OFFSET -3.6576 8.04674 8.04672
            CHANNELS 3 Zrotation Xrotation Yrotation
            End Site
            {
              OFFSET 1 0 0
            }
          }
        }
      }
      JOINT rCollar
      {
        OFFSET -2.68224 19.2634 -4.8768
        CHANNELS 3 Zrotation Xrotation Yrotation
        JOINT rShldr
        {
          OFFSET -8.77824 -1.95073 1.46304
          CHANNELS 3 Zrotation Xrotation Yrotation
          JOINT rForeArm
          {
            OFFSET -28.1742 -1.7115 0.48768
            CHANNELS 3 Zrotation Xrotation Yrotation
            JOINT rHand
            {
              OFFSET -22.5879 0.773209 7.07136
              CHANNELS 3 Zrotation Xrotation Yrotation
              JOINT rThumb1
              {
                OFFSET -1.2192 -0.487915 3.41376
                CHANNELS 3 Zrotation Xrotation Yrotation
                JOINT rThumb2
                {
                  OFFSET -3.37035 -0.52449 3.41376
                  CHANNELS 3 Zrotation Xrotation Yrotation
                  End Site
                  {
                    OFFSET -1.78271 -1.18214 1.43049
                  }
                }
              }
              JOINT rIndex1
              {
                OFFSET -7.75947 0.938293 5.60832
                CHANNELS 3 Zrotation Xrotation Yrotation
                JOINT rIndex2
                {
                  OFFSET -2.54057 -0.884171 1.56538
                  CHANNELS 3 Zrotation Xrotation Yrotation
                  End Site
                  {
                    OFFSET -1.62519 -0.234802 1.16502
                  }
                }
              }
              JOINT rMid1
              {
                OFFSET -8.24714 1.18213 3.41376
                CHANNELS 3 Zrotation Xrotation Yrotation
                JOINT rMid2
                {
                  OFFSET -3.10165 -0.590103 1.0647
                  CHANNELS 3 Zrotation Xrotation Yrotation
                  End Site
                  {
                    OFFSET -2.48547 -0.328903 0.83742
                  }
                }
              }
              JOINT rRing1
              {
                OFFSET -8.82822 0.546677 1.51678
                CHANNELS 3 Zrotation Xrotation Yrotation
                JOINT rRing2
                {
                  OFFSET -2.60934 -0.819778 -0.0198488
                  CHANNELS 3 Zrotation Xrotation Yrotation
                  End Site
                  {
                    OFFSET -2.33842 -0.294052 0.168128
                  }
                }
              }
              JOINT rPinky1
              {
                OFFSET -8.27202 -0.0477905 -0.4584
                CHANNELS 3 Zrotation Xrotation Yrotation
                JOINT rPinky2
                {
                  OFFSET -1.82734 -0.647385 -0.700984
                  CHANNELS 3 Zrotation Xrotation Yrotation
                  End Site
                  {
                    OFFSET -1.69225 -0.51767 -0.607171
                  }
                }
              }
            }
          }
        }
      }
      JOINT lCollar
      {
        OFFSET 2.68224 19.2634 -4.8768
        CHANNELS 3 Zrotation Xrotation Yrotation
        JOINT lShldr
        {
          OFFSET 8.77824 -1.95073 1.46304
          CHANNELS 3 Zrotation Xrotation Yrotation
          JOINT lForeArm
          {
            OFFSET 28.1742 -1.7115 0.48768
            CHANNELS 3 Zrotation Xrotation Yrotation
            JOINT lHand
            {
              OFFSET 22.5879 0.773209 7.07136
              CHANNELS 3 Zrotation Xrotation Yrotation
              JOINT lThumb1
              {
                OFFSET 1.2192 -0.487915 3.41376
                CHANNELS 3 Zrotation Xrotation Yrotation
                JOINT lThumb2
                {
                  OFFSET 3.37035 -0.52449 3.41376
                  CHANNELS 3 Zrotation Xrotation Yrotation
                  End Site
                  {
                    OFFSET 1.78271 -1.18214 1.43049
                  }
                }
              }
              JOINT lIndex1
              {
                OFFSET 7.75947 0.938293 5.60832
                CHANNELS 3 Zrotation Xrotation Yrotation
                JOINT lIndex2
                {
                  OFFSET 2.54057 -0.884171 1.56538
                  CHANNELS 3 Zrotation Xrotation Yrotation
                  End Site
                  {
                    OFFSET 1.62519 -0.234802 1.16502
                  }
                }
              }
              JOINT lMid1
              {
                OFFSET 8.24714 1.18213 3.41376
                CHANNELS 3 Zrotation Xrotation Yrotation
                JOINT lMid2
                {
                  OFFSET 3.10165 -0.590103 1.0647
                  CHANNELS 3 Zrotation Xrotation Yrotation
                  End Site
                  {
                    OFFSET 2.48547 -0.328903 0.83742
                  }
                }
              }
              JOINT lRing1
              {
                OFFSET 8.82822 0.546677 1.51678
                CHANNELS 3 Zrotation Xrotation Yrotation
                JOINT lRing2
                {
                  OFFSET 2.60934 -0.819778 -0.0198488
                  CHANNELS 3 Zrotation Xrotation Yrotation
                  End Site
                  {
                    OFFSET 2.33842 -0.294052 0.168128
                  }
                }
              }
              JOINT lPinky1
              {
                OFFSET 8.27202 -0.0477905 -0.4584
                CHANNELS 3 Zrotation Xrotation Yrotation
                JOINT lPinky2
                {
                  OFFSET 1.82734 -0.647385 -0.700984
                  CHANNELS 3 Zrotation Xrotation Yrotation
                  End Site
                  {
                    OFFSET 1.69225 -0.51767 -0.607171
                  }
                }
              }
            }
          }
        }
      }
    }
  }
  JOINT rButtock
  {
    OFFSET -8.77824 4.35084 1.2192
    CHANNELS 3 Zrotation Xrotation Yrotation
    JOINT rThigh
    {
      OFFSET 0 -1.70687 -2.19456
      CHANNELS 3 Zrotation Xrotation Yrotation
      JOINT rShin
      {
        OFFSET 0 -36.8199 0.73152
        CHANNELS 3 Zrotation Xrotation Yrotation
        JOINT rFoot
        {
          OFFSET 0.73152 -45.1104 -5.12064
          CHANNELS 3 Zrotation Xrotation Yrotation
          End Site
          {
            OFFSET -1.1221 -3.69964 12.103
          }
        }
      }
    }
  }
  JOINT lButtock
  {
    OFFSET 8.77824 4.35084 1.2192
    CHANNELS 3 Zrotation Xrotation Yrotation
    JOINT lThigh
    {
      OFFSET 0 -1.70687 -2.19456
      CHANNELS 3 Zrotation Xrotation Yrotation
      JOINT lShin
      {
        OFFSET 0 -36.8199 0.73152
        CHANNELS 3 Zrotation Xrotation Yrotation
        JOINT lFoot
        {
          OFFSET -0.73152 -45.1104 -5.12064
          CHANNELS 3 Zrotation Xrotation Yrotation
          End Site
          {
            OFFSET 1.1221 -3.69964 12.103
          }
        }
      }
    }
  }
}
MOTION
Frames:	4
Frame Time:	0.00833333
10.1699 84.7533 -129.518 0.0 0.0 0.0 0.0256068 -6.1932e-06 0.000728851 0.0070649 8.62932e-06 0.00122384 -1.59038e-16 -7.95139e-16 1.94126e-18 -4.69008e-16 3.18055e-15 6.21202e-18 -0.0 0.0 0.0 -0.0 0.0 0.0 -5.10232e-17 0.0 1.98785e-16 3.76701e-16 -4.5969e-16 7.95139e-16 -2.63887e-14 6.55989e-15 1.59028e-14 -3.21528e-13 -1.64246e-14 -2.22639e-14 -7.57973e-13 -1.50325e-14 9.54166e-15 -1.3255e-12 -2.54444e-14 3.97569e-15 -7.51008e-13 -1.23246e-14 -3.18055e-15 7.73091 5.47488 0.417314 -7.58065e-13 -1.46107e-14 3.18055e-15 2.90554 0.965183 0.102902 -7.52164e-13 -1.45113e-14 5.56597e-15 10.2786 0.731801 0.0259123 -7.61147e-13 -1.47101e-14 1.59028e-14 2.22167 -0.733487 -0.20892 -1.47766e-16 -3.88251e-19 -1.98785e-16 -3.55483e-15 -2.60905e-16 -7.95139e-16 -2.83268e-14 -7.95139e-15 -2.54444e-14 -3.22124e-13 9.93923e-15 3.49861e-14 -7.57305e-13 8.82152e-15 9.54166e-15 -1.29608e-12 1.59028e-14 1.59028e-14 -7.63731e-13 9.93923e-15 1.90833e-14 -7.73091 5.47488 -0.417314 -7.57221e-13 8.44835e-15 3.18055e-15 -2.90554 0.965183 -0.102902 -7.64097e-13 9.24349e-15 7.15625e-15 -10.2786 0.731801 -0.0259123 -7.51207e-13 9.93923e-15 -3.18055e-15 -2.22167 -0.733487 0.20892 -2.03217e-16 0.0 -3.88251e-19 0.512294 -3.13364 -0.0420884 -0.00562798 0.123102 -0.0495521 -0.492794 3.00963 0.117359 2.03217e-16 0.0 3.88251e-19 -0.47333 -3.03453 0.0397105 0.00592202 -0.0564359 0.0521753 0.492511 3.09005 -0.118956
10.5294 81.9452 -128.618 1.5476 -0.6833 -7.4871 -1.90629 4.23301 0.969305 0.765312 -1.08066 0.13068 -2.55806 0.125 -0.931563 3.09193 -2.79333 -0.877277 -0.0 0.0 0.0 -0.0 0.0 0.0 1.45954e-15 -1.29599e-14 8.07951e-16 23.4837 12.0571 -3.39743 -27.777 -25.2337 13.4174 0.00501069 -1.7989 -0.252635 -9.75357e-11 -2.94274e-09 1.81302e-11 -1.68935e-10 -5.10988e-09 3.15952e-11 -9.75282e-11 -2.94275e-09 1.81193e-11 7.73091 5.47488 0.417314 -9.75363e-11 -2.94274e-09 1.81239e-11 2.90554 0.965183 0.102902 -9.75276e-11 -2.94275e-09 1.81272e-11 10.2786 0.731801 0.0259123 -9.75386e-11 -2.94274e-09 1.81378e-11 2.22167 -0.733487 -0.20892 1.34293e-15 -1.29573e-14 4.38724e-16 -23.6707 11.7067 4.93168 23.1338 -21.0062 -14.8615 -0.158357 -8.85797 1.19207 -4.96852e-11 -1.05337e-10 -1.10584e-11 -8.60102e-11 -1.8506e-10 -2.03603e-11 -4.96903e-11 -1.05335e-10 -1.10517e-11 -7.73091 5.47488 -0.417314 -4.96848e-11 -1.05337e-10 -1.10622e-11 -2.90554 0.965183 -0.102902 -4.96901e-11 -1.05336e-10 -1.10616e-11 -10.2786 0.731801 -0.0259123 -4.9677e-11 -1.05333e-10 -1.10722e-11 -2.22167 -0.733487 0.20892 -2.03217e-16 0.0 -3.88251e-19 -1.71728 -10.1554 0.931123 -0.163472 25.6312 0.323658 -0.928691 6.1203 -3.44384 2.03217e-16 0.0 3.88251e-19 -2.35303 -10.4782 0.913239 0.128744 14.7641 -0.054077 0.488637 -1.04942 0.822966
10.7265 81.5752 -125.761 3.099 -1.4004 -7.5113 -4.11383 8.72145 2.03899 1.57976 -2.20839 0.273561 -5.2635 0.270541 -1.92193 6.26342 -5.76877 -1.821 -0.0 0.0 0.0 -0.0 0.0 0.0 7.28465e-15 -2.83302e-14 1.05294e-15 49.9483 24.6866 -7.45457 -39.7913 -46.6529 37.7923 -0.00782835 -3.59885 -0.506434 -1.94282e-10 -6.37117e-09 2.40309e-11 -3.36302e-10 -1.10651e-08 4.21112e-11 -1.94274e-10 -6.37119e-09 2.40219e-11 7.73091 5.47488 0.417314 -1.94283e-10 -6.37117e-09 2.40245e-11 2.90554 0.965183 0.102902 -1.94271e-10 -6.37119e-09 2.40288e-11 10.2786 0.731801 0.0259123 -1.94284e-10 -6.37117e-09 2.40398e-11 2.22167 -0.733487 -0.20892 7.14631e-15 -2.83244e-14 7.14383e-16 -51.1062 23.7979 10.9908 33.5925 -38.0817 -37.3124 0.0949843 -18.2613 2.55824 -9.17622e-11 3.47472e-11 -4.64143e-12 -1.59203e-10 5.12372e-11 -1.05269e-11 -9.17661e-11 3.47517e-11 -4.63784e-12 -7.73091 5.47488 -0.417314 -9.17615e-11 3.47483e-11 -4.64261e-12 -2.90554 0.965183 -0.102902 -9.17651e-11 3.47491e-11 -4.64555e-12 -10.2786 0.731801 -0.0259123 -9.17517e-11 3.47561e-11 -4.65653e-12 -2.22167 -0.733487 0.20892 -2.03217e-16 0.0 -3.88251e-19 -3.79328 -17.407 2.06702 -0.900358 52.6103 1.07625 -0.958138 9.42858 -7.2842 2.03217e-16 0.0 3.88251e-19 -4.08398 -18.4333 1.89384 0.331275 30.4196 -0.18324 0.617743 -5.33533 1.77874
10.7303 81.2701 -122.971 3.7179 -2.1509 -7.2425 -6.20838 12.6843 2.9711 2.29648 -3.24192 0.390146 -7.66199 0.374603 -2.79474 9.01693 -8.37208 -2.65704 -0.0 0.0 0.0 -0.0 0.0 0.0 4.48067e-15 -3.88797e-14 2.02628e-15 75.5482 35.602 -12.2909 -31.1789 -51.8578 73.674 -0.0327382 -5.39627 -0.760904 -2.91091e-10 -8.8282e-09 5.43716e-11 -5.04154e-10 -1.53296e-08 9.47778e-11 -2.91083e-10 -8.82822e-09 5.43643e-11 7.73091 5.47488 0.417314 -2.91093e-10 -8.8282e-09 5.43653e-11 2.90554 0.965183 0.102902 -2.91079e-10 -8.82822e-09 5.43704e-11 10.2786 0.731801 0.0259123 -2.91094e-10 -8.8282e-09 5.43815e-11 2.22167 -0.733487 -0.20892 4.32433e-15 -3.88712e-14 1.71374e-15 -78.0278 33.9698 17.5556 30.8056 -42.6997 -64.5146 0.740381 -26.5251 3.94988 -1.47541e-10 -3.1603e-10 -3.31942e-11 -2.55439e-10 -5.55212e-10 -6.11127e-11 -1.47544e-10 -3.16024e-10 -3.31931e-11 -7.73091 5.47488 -0.417314 -1.4754e-10 -3.16028e-10 -3.31929e-11 -2.90554 0.965183 -0.102902 -1.47542e-10 -3.16027e-10 -3.3199e-11 -10.2786 0.731801 -0.0259123 -1.47529e-10 -3.16018e-10 -3.32102e-11 -2.22167 -0.733487 0.20892 -2.03217e-16 0.0 -3.88251e-19 -5.40067 -24.1714 3.10622 -4.15782 76.6137 4.21296 -0.624533 12.1639 -10.7511 2.03217e-16 0.0 3.88251e-19 -5.36728 -25.3412 2.89333 0.589001 44.4045 -0.365649 0.892845 -9.31822 2.74226
